<svg width="20" height="20" viewBox="0 0 24 24" fill="none" xmlns="http://www.w3.org/2000/svg">
  <g clip-path="url(#clip0_449_32453)">
    <path fill-rule="evenodd" clip-rule="evenodd" d="M12 21.5C17.2467 21.5 21.5 17.2467 21.5 12C21.5 6.75329 17.2467 2.5 12 2.5C6.75329 2.5 2.5 6.75329 2.5 12C2.5 17.2467 6.75329 21.5 12 21.5ZM12 24C18.6274 24 24 18.6274 24 12C24 5.37258 18.6274 0 12 0C5.37258 0 0 5.37258 0 12C0 18.6274 5.37258 24 12 24Z" fill="#111111"/>
    <path fill-rule="evenodd" clip-rule="evenodd" d="M18.3839 5.61609C18.7375 5.96967 18.8463 6.49995 18.6606 6.96423L15.7439 14.2561C15.7415 14.2624 15.739 14.2687 15.7365 14.275C15.4315 15.0368 14.8232 15.6361 14.0591 15.9306L6.94891 18.6666C6.48783 18.844 5.9655 18.7332 5.61615 18.3839C5.2668 18.0346 5.15597 17.5123 5.33336 17.0512L8.06803 9.94284C8.36219 9.17808 8.96156 8.56859 9.72491 8.26414L17.0357 5.33943C17.5 5.15369 18.0303 5.26252 18.3839 5.61609ZM13.4115 13.3556C13.4126 13.3531 13.4136 13.3505 13.4146 13.3479L15.2561 8.74398L10.6512 10.5862C10.5376 10.6315 10.4466 10.7228 10.4014 10.8402L8.67684 15.323L13.1601 13.5978C13.2734 13.5541 13.364 13.4666 13.4115 13.3556Z" fill="#111111"/>
  </g>
  <defs>
    <clipPath id="clip0_449_32453">
      <rect width="24" height="24" fill="white"/>
    </clipPath>
  </defs>
</svg>
